<svg width="223.015" height="95.602" viewBox="0 0 223.015 95.602" xmlns="http://www.w3.org/2000/svg"><g id="svgGroup" stroke-linecap="round" fill-rule="evenodd" font-size="9pt" stroke="#000" stroke-width="0.25mm" fill="black" style="stroke:#000;stroke-width:0.25mm;fill:black"><path d="M 23.7 95.601 Q 16.9 95.601 11.55 93.601 A 21.444 21.444 0 0 1 6.796 91.149 A 17.294 17.294 0 0 1 3.1 87.701 Q 0 83.801 0 78.001 A 15.543 15.543 0 0 1 0.472 74.078 A 11.67 11.67 0 0 1 2.75 69.551 A 15.417 15.417 0 0 1 7.703 65.618 A 19.896 19.896 0 0 1 10.2 64.551 Q 14.9 62.901 20.5 62.901 Q 28 62.901 36.85 64.851 A 317.925 317.925 0 0 1 45.044 66.778 Q 49.211 67.813 53.797 69.052 A 535.213 535.213 0 0 1 56.9 69.901 Q 57.836 68.03 58.728 65.59 A 58.289 58.289 0 0 0 58.85 65.251 Q 59.496 63.45 59.934 60.887 A 49.036 49.036 0 0 0 60.3 58.301 Q 53 63.201 44.1 63.201 A 29.942 29.942 0 0 1 37.415 62.487 A 23.19 23.19 0 0 1 30.9 59.951 Q 25.3 56.701 22.35 50.851 A 26.525 26.525 0 0 1 19.776 42.298 Q 19.497 40.178 19.497 37.898 A 37.734 37.734 0 0 1 19.5 37.401 A 21.401 21.401 0 0 1 14.135 32.664 Q 10.4 27.936 10.4 21.401 A 21.386 21.386 0 0 1 11.293 15.134 A 18.783 18.783 0 0 1 13 11.201 Q 15.6 6.701 20.1 4.101 A 19.515 19.515 0 0 1 28.527 1.566 A 23.819 23.819 0 0 1 30.3 1.501 Q 33.6 1.501 36.6 3.101 A 15.235 15.235 0 0 1 39.032 4.695 A 11.226 11.226 0 0 1 41.2 7.001 A 37.951 37.951 0 0 1 50.427 4.503 A 33.532 33.532 0 0 1 54.9 4.201 A 23.766 23.766 0 0 1 60.781 4.91 A 21.186 21.186 0 0 1 63.25 5.701 A 16.175 16.175 0 0 1 67.013 7.746 A 13.681 13.681 0 0 1 69.45 10.051 A 10.163 10.163 0 0 1 71.633 15.012 A 13.844 13.844 0 0 1 71.8 17.201 Q 71.8 22.401 68.25 26.751 A 29.384 29.384 0 0 1 62.82 31.853 A 37.459 37.459 0 0 1 59 34.301 Q 53.3 37.501 46.7 39.201 A 53.598 53.598 0 0 1 37.815 40.735 A 46.75 46.75 0 0 1 33.9 40.901 Q 31.6 40.901 29.5 40.701 Q 27.4 40.501 25.5 40.101 A 32.499 32.499 0 0 0 26.629 46.893 A 22.769 22.769 0 0 0 30.8 55.101 A 16.938 16.938 0 0 0 43.212 61.435 A 23.773 23.773 0 0 0 45 61.501 A 22.171 22.171 0 0 0 58.352 56.996 A 29.782 29.782 0 0 0 60.9 54.901 Q 61.2 51.001 61.55 47.201 A 49.512 49.512 0 0 1 62.049 43.361 A 38.019 38.019 0 0 1 62.7 40.301 A 17.262 17.262 0 0 1 63.399 38.152 Q 64.063 36.508 65 35.351 A 4.813 4.813 0 0 1 68.503 33.52 A 6.369 6.369 0 0 1 69 33.501 A 5.249 5.249 0 0 1 70.23 33.636 A 3.213 3.213 0 0 1 72.2 34.951 A 5.675 5.675 0 0 1 73.192 37.949 A 6.99 6.99 0 0 1 73.2 38.301 A 15.594 15.594 0 0 1 72.542 42.676 Q 71.957 44.683 70.85 46.801 Q 68.647 51.02 64.379 55.151 A 48.203 48.203 0 0 1 63.8 55.701 Q 63.1 60.201 62.4 64.301 Q 61.865 67.44 61.211 69.817 A 33.756 33.756 0 0 1 60.8 71.201 A 376.346 376.346 0 0 0 65.605 72.16 Q 69.363 72.883 72.3 73.351 Q 76.174 73.97 78.622 74.078 A 22.141 22.141 0 0 0 79.6 74.101 A 20.424 20.424 0 0 0 85.626 73.249 A 16.692 16.692 0 0 0 91.8 69.801 Q 94.1 67.801 94.1 69.301 A 0.96 0.96 0 0 1 94.065 69.542 Q 94 69.792 93.812 70.139 A 6.598 6.598 0 0 1 93.6 70.501 Q 90.984 74.965 84.101 75.994 A 30.551 30.551 0 0 1 79.6 76.301 A 45.989 45.989 0 0 1 74.602 75.999 Q 69.407 75.426 62.431 73.772 A 171.208 171.208 0 0 1 60.1 73.201 Q 57.5 80.301 51.95 85.301 Q 46.4 90.301 39.05 92.951 Q 31.7 95.601 23.7 95.601 Z M 96.5 39.101 L 97.4 30.901 A 1.487 1.487 0 0 0 97.605 30.952 Q 97.818 30.99 98.12 30.999 A 6.387 6.387 0 0 0 98.3 31.001 Q 100.081 31.001 101.247 29.07 A 7.091 7.091 0 0 0 101.4 28.801 Q 101.45 28.602 101.55 28.502 A 0.339 0.339 0 0 1 101.8 28.401 A 0.415 0.415 0 0 1 102.175 28.621 Q 102.225 28.704 102.259 28.818 A 1.495 1.495 0 0 1 102.3 29.001 L 100.2 46.801 Q 99.6 51.901 99.6 56.701 A 42.17 42.17 0 0 0 99.644 58.689 Q 99.729 60.486 99.981 61.707 A 9.12 9.12 0 0 0 100.15 62.401 Q 100.442 63.409 101.001 63.882 A 1.794 1.794 0 0 0 102.2 64.301 A 3.708 3.708 0 0 0 104.385 63.577 A 5.628 5.628 0 0 0 105.3 62.751 A 12.468 12.468 0 0 0 106.547 61.1 Q 107.091 60.249 107.578 59.231 A 21.601 21.601 0 0 0 107.8 58.751 Q 108.9 56.301 109.75 53.601 Q 110.6 50.901 111 48.601 Q 111.2 41.601 112.45 35.001 Q 113.7 28.401 115.6 22.601 A 71.907 71.907 0 0 1 117.543 17.068 A 57.22 57.22 0 0 1 119.25 13.201 A 45.428 45.428 0 0 1 121.843 8.566 A 36.801 36.801 0 0 1 123.8 5.801 A 28.041 28.041 0 0 1 125.871 3.401 Q 128.215 1.001 130.355 0.295 A 5.554 5.554 0 0 1 132.1 0.001 A 4.6 4.6 0 0 1 134.128 0.418 Q 136.5 1.569 136.5 5.901 A 23.276 23.276 0 0 1 135.723 11.755 A 29.462 29.462 0 0 1 134.65 15.051 Q 132.8 19.801 129.85 24.151 A 58.936 58.936 0 0 1 124.76 30.659 A 52.962 52.962 0 0 1 123.5 32.001 Q 120.1 35.501 117 37.301 A 151.786 151.786 0 0 0 116.146 43.398 Q 115.5 48.867 115.5 53.001 Q 115.5 62.52 118.689 64.36 A 3.361 3.361 0 0 0 120.4 64.801 Q 122.334 64.801 123.909 62.738 A 11.158 11.158 0 0 0 124.8 61.351 A 18.047 18.047 0 0 0 125.83 59.082 Q 127.094 55.764 128.1 50.301 A 14.568 14.568 0 0 1 126.286 45.81 A 16.356 16.356 0 0 1 126.25 45.651 Q 125.7 43.101 125.7 40.001 A 12.35 12.35 0 0 1 125.782 38.521 Q 125.969 36.982 126.584 36.173 A 2.195 2.195 0 0 1 127.4 35.501 A 2.008 2.008 0 0 1 127.735 35.467 Q 129.919 35.433 130.087 40.777 A 29.551 29.551 0 0 1 130.1 41.701 A 34.496 34.496 0 0 1 130.062 43.268 Q 130.027 44.024 129.962 44.882 A 77.184 77.184 0 0 1 129.8 46.701 L 129.6 49.401 Q 130.4 51.701 131.8 52.851 A 5.351 5.351 0 0 0 133.087 53.648 A 4.309 4.309 0 0 0 134.8 54.001 Q 136.6 54.001 138.1 52.601 A 5.655 5.655 0 0 0 139.44 50.647 Q 139.825 49.739 140 48.601 A 1.277 1.277 0 0 1 140.119 48.339 Q 140.211 48.189 140.336 48.105 A 0.642 0.642 0 0 1 140.7 48.001 A 1.208 1.208 0 0 1 140.892 48.015 Q 141.342 48.088 141.218 48.543 A 1.089 1.089 0 0 1 141.2 48.601 A 9.852 9.852 0 0 1 140.683 50.797 A 6.788 6.788 0 0 1 138.85 53.551 A 7.338 7.338 0 0 1 137.143 54.716 A 5.782 5.782 0 0 1 134.6 55.301 A 5.531 5.531 0 0 1 132.066 54.674 A 6.907 6.907 0 0 1 131.5 54.351 A 5.46 5.46 0 0 1 130.048 52.981 Q 129.512 52.261 129.1 51.301 A 57.376 57.376 0 0 1 128.499 55.304 Q 127.777 59.117 126.646 61.516 A 12.512 12.512 0 0 1 126.1 62.551 A 7.241 7.241 0 0 1 123.901 64.939 Q 122.161 66.101 119.7 66.101 A 9.084 9.084 0 0 1 117.55 65.863 A 5.612 5.612 0 0 1 114.15 63.601 Q 112.533 61.291 112.026 57.784 A 20.484 20.484 0 0 1 111.95 57.201 Q 111.5 53.301 111.5 49.201 A 1.052 1.052 0 0 0 111.479 48.979 Q 111.409 48.657 111.111 48.61 A 0.702 0.702 0 0 0 111 48.601 A 3.883 3.883 0 0 1 111.086 48.228 Q 111.194 47.852 111.354 47.671 A 0.452 0.452 0 0 1 111.7 47.501 Q 112.3 47.501 112.2 48.601 Q 111.4 52.701 110.2 56.651 Q 109.053 60.428 107.083 62.925 A 13.915 13.915 0 0 1 106.9 63.151 A 6.706 6.706 0 0 1 102.027 65.679 A 8.607 8.607 0 0 1 101.4 65.701 Q 99 65.701 97.65 63.851 A 9.696 9.696 0 0 1 96.401 61.485 A 13.272 13.272 0 0 1 95.8 59.251 Q 95.3 56.501 95.3 53.801 A 43.416 43.416 0 0 1 93.984 57.997 Q 91.346 65.012 87.4 65.801 A 3.947 3.947 0 0 1 87.115 65.862 Q 86.888 65.901 86.7 65.901 L 86 65.901 A 6.029 6.029 0 0 1 83.761 65.499 A 5.489 5.489 0 0 1 81.5 63.801 Q 79.863 61.778 79.107 58.641 A 18.915 18.915 0 0 1 79.05 58.401 Q 78.3 55.101 78.3 51.701 Q 78.3 46.701 79.65 41.851 A 25.313 25.313 0 0 1 81.202 37.667 A 18.786 18.786 0 0 1 83.65 33.801 A 9.278 9.278 0 0 1 86.059 31.7 A 7.976 7.976 0 0 1 90.2 30.601 A 5.208 5.208 0 0 1 95.038 33.442 Q 95.658 34.544 96.032 36.072 A 19.546 19.546 0 0 1 96.5 39.101 Z M 209.057 65.811 A 8.883 8.883 0 0 0 211.4 66.101 A 6.725 6.725 0 0 0 214.904 65.155 A 8.226 8.226 0 0 0 216.9 63.451 A 19.205 19.205 0 0 0 219.147 60.214 A 26.57 26.57 0 0 0 220.75 56.751 Q 222.3 52.701 223 48.601 A 1.49 1.49 0 0 0 223.011 48.505 Q 223.058 47.901 222.5 47.901 Q 222.114 47.901 221.907 48.32 A 1.668 1.668 0 0 0 221.8 48.601 Q 221.5 50.601 220.55 53.351 Q 219.6 56.101 218.2 58.701 A 26.669 26.669 0 0 1 218.113 58.863 Q 216.749 61.354 215.15 63.001 A 8.211 8.211 0 0 1 214.883 63.265 Q 214.316 63.798 213.732 64.133 A 4.035 4.035 0 0 1 211.7 64.701 A 3.364 3.364 0 0 1 209.192 63.638 A 5.162 5.162 0 0 1 208.4 62.551 Q 207.683 61.266 207.234 59.589 A 20.078 20.078 0 0 1 206.75 57.151 Q 206.3 53.901 206.3 50.501 Q 214.9 38.401 219.1 25.701 Q 220.5 21.601 221.5 16.451 Q 222.5 11.301 222.5 7.301 A 23.11 23.11 0 0 0 222.442 5.612 Q 222.369 4.621 222.206 3.78 A 9.708 9.708 0 0 0 221.75 2.151 A 4.047 4.047 0 0 0 221.403 1.448 Q 220.971 0.76 220.315 0.452 A 2.823 2.823 0 0 0 219.1 0.201 A 4.645 4.645 0 0 0 217.679 0.428 Q 214.99 1.288 212.3 5.401 A 25.032 25.032 0 0 0 211.414 6.812 Q 210.584 8.233 209.812 9.94 A 48.544 48.544 0 0 0 208.45 13.301 A 82.629 82.629 0 0 0 207.169 17.108 A 101.501 101.501 0 0 0 205.35 23.801 Q 204 29.501 203.25 35.451 Q 202.5 41.401 202.5 46.901 A 79.227 79.227 0 0 0 202.6 50.921 A 63.288 63.288 0 0 0 203.1 56.351 A 23.857 23.857 0 0 0 203.283 57.478 Q 203.591 59.124 204.105 60.508 A 12.667 12.667 0 0 0 205.6 63.401 A 6.042 6.042 0 0 0 209.057 65.811 Z M 143 30.401 L 143 31.801 A 18.386 18.386 0 0 0 143.221 31.855 Q 143.584 31.941 144.288 32.098 A 288.663 288.663 0 0 0 144.75 32.201 A 58.883 58.883 0 0 0 147.19 32.688 A 64.603 64.603 0 0 0 147.55 32.751 A 30.493 30.493 0 0 1 148.178 32.866 Q 148.952 33.016 149.349 33.147 A 2.605 2.605 0 0 1 149.5 33.201 Q 153.2 34.201 154.6 35.401 A 3.052 3.052 0 0 1 155.368 36.469 Q 156 37.848 156 40.401 Q 156 42.101 155.55 44.301 Q 155.108 46.467 154.132 49.02 A 41.711 41.711 0 0 1 154.1 49.101 A 125.633 125.633 0 0 0 152.776 52.722 Q 150.977 57.904 150.737 60.473 A 7.88 7.88 0 0 0 150.7 61.201 A 6.171 6.171 0 0 0 150.825 62.501 Q 151.235 64.396 152.998 64.659 A 4.088 4.088 0 0 0 153.6 64.701 A 4.258 4.258 0 0 0 155.725 64.115 Q 156.315 63.78 156.887 63.255 A 8.164 8.164 0 0 0 157.05 63.101 A 9.161 9.161 0 0 0 158.077 61.896 Q 159.042 60.563 159.991 58.497 A 34.481 34.481 0 0 0 160.3 57.801 Q 161.3 55.501 162.05 52.851 Q 162.8 50.201 163.1 48.601 Q 163.193 47.957 163.708 47.906 A 0.933 0.933 0 0 1 163.8 47.901 Q 164.358 47.901 164.311 48.505 A 1.49 1.49 0 0 1 164.301 48.601 Q 163.6 51.601 162.85 54.051 Q 162.1 56.501 161.3 58.501 A 23.429 23.429 0 0 1 159.864 61.368 Q 157.176 65.858 153.61 65.858 A 5.95 5.95 0 0 1 152.8 65.801 Q 148.187 65.063 147.83 59.556 A 14.8 14.8 0 0 1 147.8 58.601 A 19.945 19.945 0 0 1 147.923 56.486 Q 148.033 55.466 148.239 54.307 A 46.785 46.785 0 0 1 148.75 51.851 Q 149.7 47.801 150.6 43.701 Q 151 42.001 151.2 40.801 Q 151.4 39.601 151.4 38.901 Q 151.4 36.661 149.582 35.386 A 5.984 5.984 0 0 0 148.95 35.001 Q 146.5 33.701 143.1 33.101 Q 143.1 36.201 142.55 40.201 A 188.949 188.949 0 0 1 141.631 46.158 A 219.986 219.986 0 0 1 141.2 48.601 Q 141.113 49.124 140.647 49.191 A 1.025 1.025 0 0 1 140.5 49.201 A 0.589 0.589 0 0 1 140.285 49.165 Q 140.028 49.064 140.003 48.685 A 1.292 1.292 0 0 1 140 48.601 A 119.551 119.551 0 0 0 141.193 40.527 A 109.801 109.801 0 0 0 141.25 40.001 Q 141.7 35.801 141.7 33.001 Q 140.2 32.501 139.25 31.251 A 5.157 5.157 0 0 1 138.635 30.227 A 3.729 3.729 0 0 1 138.3 28.701 A 5.795 5.795 0 0 1 138.359 27.847 Q 138.503 26.885 139 26.351 A 2.586 2.586 0 0 1 139.576 25.881 A 1.985 1.985 0 0 1 140.6 25.601 A 1.613 1.613 0 0 1 141.682 26.024 Q 141.917 26.228 142.127 26.529 A 3.982 3.982 0 0 1 142.3 26.801 A 4.189 4.189 0 0 1 142.697 27.762 Q 142.958 28.673 142.994 29.967 A 15.344 15.344 0 0 1 143 30.401 Z M 32.5 38.101 A 43.735 43.735 0 0 0 40.574 37.321 A 52.635 52.635 0 0 0 44.4 36.451 Q 50.6 34.801 55.95 31.851 A 34.763 34.763 0 0 0 60.936 28.543 A 27.032 27.032 0 0 0 64.65 24.951 A 14.897 14.897 0 0 0 66.97 21.304 A 12.087 12.087 0 0 0 68 16.401 Q 68 13.101 66.15 10.901 A 11.146 11.146 0 0 0 62.022 7.855 A 13.323 13.323 0 0 0 61.4 7.601 Q 58.5 6.501 55.3 6.501 Q 50.358 6.501 44.512 8.908 A 45.265 45.265 0 0 0 42.7 9.701 Q 43.9 12.201 43.9 14.901 Q 43.9 17.801 42.6 20.401 A 13.369 13.369 0 0 1 40.696 23.265 A 11.624 11.624 0 0 1 39.25 24.651 A 7.953 7.953 0 0 1 37.409 25.779 A 6.291 6.291 0 0 1 34.9 26.301 A 6.114 6.114 0 0 1 34.312 26.276 Q 33.737 26.22 33.435 26.043 A 0.603 0.603 0 0 1 33.1 25.501 A 1.04 1.04 0 0 1 33.169 25.109 Q 33.374 24.601 34.2 24.601 Q 36.3 24.601 37.95 23.201 Q 39.6 21.801 40.6 19.601 A 11.143 11.143 0 0 0 41.471 16.783 A 9.793 9.793 0 0 0 41.6 15.201 A 10.437 10.437 0 0 0 41.409 13.238 A 11.666 11.666 0 0 0 41.35 12.951 Q 41.1 11.801 40.5 10.801 Q 33.4 15.001 29.45 22.001 Q 25.5 29.001 25.4 37.401 Q 27.1 37.801 28.85 37.951 Q 30.6 38.101 32.5 38.101 Z M 186.663 64.891 A 9.254 9.254 0 0 0 189.7 65.801 A 9.601 9.601 0 0 0 190.783 65.864 Q 199.639 65.864 203.6 48.601 A 3.318 3.318 0 0 0 203.602 48.583 Q 203.671 47.86 203.366 47.67 A 0.491 0.491 0 0 0 203.1 47.601 A 0.463 0.463 0 0 0 202.776 47.734 Q 202.604 47.894 202.49 48.249 A 3.224 3.224 0 0 0 202.4 48.601 A 48.029 48.029 0 0 1 201.417 52.5 Q 199.966 57.336 197.75 60.351 Q 196.416 62.167 194.957 63.188 A 6.788 6.788 0 0 1 191 64.501 A 9.202 9.202 0 0 1 190.868 64.5 Q 190.262 64.492 189.9 64.401 A 4.105 4.105 0 0 1 188.97 64.119 Q 185.746 62.699 185.076 55.611 A 43.926 43.926 0 0 1 184.9 51.501 Q 188.4 51.501 191.15 49.251 A 14.848 14.848 0 0 0 192.831 47.64 A 16.428 16.428 0 0 0 195.5 43.501 A 19.425 19.425 0 0 0 196.044 42.189 A 16.237 16.237 0 0 0 197.1 36.501 Q 197.1 35.161 196.808 34.099 A 5.528 5.528 0 0 0 196 32.351 A 3.333 3.333 0 0 0 195.191 31.544 Q 194.585 31.119 193.759 30.938 A 6.321 6.321 0 0 0 192.4 30.801 Q 188.2 30.801 184.6 36.301 A 25.047 25.047 0 0 0 181.314 44.201 A 33.022 33.022 0 0 0 180.5 51.701 Q 180.5 55.101 181.5 58.201 Q 182.5 61.301 184.55 63.351 A 8.291 8.291 0 0 0 186.663 64.891 Z M 22.7 93.701 Q 27.2 93.701 32.45 91.901 Q 37.7 90.101 42.65 87.051 A 41.705 41.705 0 0 0 49.591 81.736 A 37.518 37.518 0 0 0 51.25 80.051 A 25.699 25.699 0 0 0 54.076 76.42 A 18.742 18.742 0 0 0 56.2 71.901 Q 46.575 68.894 38.723 67.215 A 130.394 130.394 0 0 0 36.2 66.701 A 125.43 125.43 0 0 0 31.013 65.805 Q 25.736 65.014 21.923 65.002 A 37.231 37.231 0 0 0 21.8 65.001 A 35.946 35.946 0 0 0 16.765 65.339 A 27.859 27.859 0 0 0 12.75 66.201 A 15.156 15.156 0 0 0 9.378 67.637 A 11.778 11.778 0 0 0 6.35 70.151 A 9.486 9.486 0 0 0 4.338 74.242 Q 4 75.696 4 77.401 A 15.771 15.771 0 0 0 5.611 84.556 A 15.975 15.975 0 0 0 8.95 89.001 A 16.339 16.339 0 0 0 16.129 92.911 Q 18.675 93.59 21.698 93.686 A 31.734 31.734 0 0 0 22.7 93.701 Z M 168.04 65.476 A 8.019 8.019 0 0 0 170.4 65.801 A 7.513 7.513 0 0 0 175.384 64.015 A 10.254 10.254 0 0 0 177.35 61.751 A 16.969 16.969 0 0 0 178.261 60.167 Q 180.335 56.098 181.9 48.601 Q 181.9 47.901 181.4 47.901 A 0.933 0.933 0 0 0 181.308 47.906 Q 180.793 47.957 180.7 48.601 A 61.774 61.774 0 0 1 180.105 51.201 A 74.661 74.661 0 0 1 178.8 55.751 A 26.099 26.099 0 0 1 177.522 59.014 A 19.2 19.2 0 0 1 175.7 62.101 A 7.814 7.814 0 0 1 175.144 62.781 A 5.671 5.671 0 0 1 170.8 64.701 Q 169.193 64.701 168.28 63.421 A 4.855 4.855 0 0 1 167.7 62.301 A 11.643 11.643 0 0 1 167.45 61.555 Q 166.8 59.389 166.8 56.501 A 35.971 35.971 0 0 1 166.858 54.494 A 44.68 44.68 0 0 1 167.15 51.351 Q 167.5 48.601 168 46.101 A 2492.18 2492.18 0 0 0 168.31 44.695 Q 169.595 38.853 170.4 35.051 A 531.621 531.621 0 0 1 170.704 33.625 Q 171.372 30.517 171.7 29.201 Q 171.776 28.672 171.566 28.543 A 0.31 0.31 0 0 0 171.4 28.501 A 0.53 0.53 0 0 0 171.089 28.597 Q 170.991 28.665 170.913 28.783 A 1.191 1.191 0 0 0 170.8 29.001 Q 170.388 29.827 169.881 30.368 A 3.026 3.026 0 0 1 167.6 31.401 Q 167.188 31.401 166.634 31.26 A 7.824 7.824 0 0 1 166.1 31.101 Q 164.6 39.501 163.4 46.701 Q 162.8 50.301 162.8 53.801 Q 162.8 58.701 164.45 62.251 A 5.693 5.693 0 0 0 168.04 65.476 Z M 206.3 48.101 A 59.486 59.486 0 0 0 211.007 40.583 A 69.218 69.218 0 0 0 212.4 37.801 A 96.895 96.895 0 0 0 215.58 30.247 A 116.927 116.927 0 0 0 217.3 25.301 Q 218.141 22.687 218.937 19.332 A 113.823 113.823 0 0 0 219.05 18.851 Q 219.9 15.201 220.45 11.551 Q 220.848 8.912 220.958 6.874 A 27.365 27.365 0 0 0 221 5.401 A 15.788 15.788 0 0 0 220.971 4.407 Q 220.907 3.389 220.7 2.701 A 2.461 2.461 0 0 0 220.544 2.3 Q 220.443 2.099 220.314 1.965 A 0.821 0.821 0 0 0 219.7 1.701 A 1.365 1.365 0 0 0 218.989 1.921 Q 218.5 2.219 217.989 2.918 A 8.485 8.485 0 0 0 217.6 3.501 Q 216.771 4.858 215.487 7.693 A 124.791 124.791 0 0 0 214.6 9.701 A 109.792 109.792 0 0 0 211.843 16.719 A 97.49 97.49 0 0 0 211.3 18.301 A 74.008 74.008 0 0 0 209.659 23.935 A 63.119 63.119 0 0 0 209.1 26.401 Q 207.8 32.301 207.15 37.701 Q 206.5 43.101 206.3 48.101 Z M 19.4 34.301 L 19.5 34.301 Q 20.3 25.501 25.35 18.601 Q 30.4 11.701 38.5 8.101 A 11.513 11.513 0 0 0 32.709 5.198 A 16.524 16.524 0 0 0 29.5 4.901 A 18.717 18.717 0 0 0 23.158 5.96 A 17.49 17.49 0 0 0 20.9 6.951 Q 17 9.001 14.7 12.601 A 14.629 14.629 0 0 0 12.511 18.959 A 18.527 18.527 0 0 0 12.4 21.001 A 17.176 17.176 0 0 0 13.385 26.95 Q 15.025 31.426 19.4 34.301 Z M 123.313 29.819 A 59.675 59.675 0 0 0 123.5 29.601 A 63.298 63.298 0 0 0 128.774 22.468 A 69.672 69.672 0 0 0 129.1 21.951 Q 131.7 17.801 133.3 13.601 Q 134.9 9.401 134.9 5.601 Q 134.9 3.748 134.557 2.668 A 4.285 4.285 0 0 0 134.5 2.501 Q 134.1 1.401 132.7 1.401 A 5.394 5.394 0 0 0 129.164 2.884 Q 125.918 5.679 123.008 13.748 A 76.305 76.305 0 0 0 122.4 15.501 A 118.437 118.437 0 0 0 119.261 26.859 A 148.938 148.938 0 0 0 117.6 35.401 Q 120.41 33.173 123.313 29.819 Z M 86.9 64.601 A 4.296 4.296 0 0 0 89.053 63.63 Q 89.651 63.143 90.195 62.422 A 10.151 10.151 0 0 0 90.75 61.601 Q 92.349 58.986 93.478 55.385 A 38.746 38.746 0 0 0 93.55 55.151 A 52.33 52.33 0 0 0 94.733 50.607 A 42.912 42.912 0 0 0 95.2 48.001 A 29.291 29.291 0 0 0 95.443 45.512 A 37.48 37.48 0 0 0 95.5 43.401 Q 95.5 40.601 95.05 37.951 Q 94.6 35.301 93.6 33.551 A 4.054 4.054 0 0 0 92.878 32.61 A 2.91 2.91 0 0 0 90.8 31.801 Q 89.449 31.801 88.256 33.128 A 7.683 7.683 0 0 0 87.65 33.901 A 16.017 16.017 0 0 0 86.458 35.959 Q 85.926 37.046 85.463 38.333 A 29.861 29.861 0 0 0 85.15 39.251 Q 84.1 42.501 83.5 45.951 A 45.124 45.124 0 0 0 83.09 48.827 Q 82.9 50.583 82.9 52.101 A 40.943 40.943 0 0 0 83.09 55.956 A 48.631 48.631 0 0 0 83.3 57.801 A 24.5 24.5 0 0 0 83.671 59.911 Q 84.038 61.551 84.6 62.801 Q 85.5 64.801 86.9 64.601 Z M 185 50.301 A 7.313 7.313 0 0 0 188.674 49.288 A 10.152 10.152 0 0 0 190.15 48.251 A 14.976 14.976 0 0 0 193.374 44.438 A 18.143 18.143 0 0 0 194.15 43.001 Q 195.7 39.801 195.7 36.401 A 9.213 9.213 0 0 0 195.609 35.042 Q 195.213 32.401 193.1 32.401 A 2.847 2.847 0 0 0 191.705 32.786 Q 191.264 33.031 190.827 33.432 A 7.301 7.301 0 0 0 190.15 34.151 A 13.777 13.777 0 0 0 188.939 35.884 Q 188.386 36.811 187.885 37.923 A 25.489 25.489 0 0 0 187.55 38.701 Q 186.4 41.501 185.7 44.551 A 28.416 28.416 0 0 0 185.134 47.872 A 22.766 22.766 0 0 0 185 50.301 Z M 63.8 51.701 A 21.869 21.869 0 0 0 65.953 49.178 A 27.272 27.272 0 0 0 67.15 47.401 A 31.739 31.739 0 0 0 69.375 43.147 A 28.682 28.682 0 0 0 69.7 42.351 Q 70.44 40.465 70.633 38.934 A 8.285 8.285 0 0 0 70.7 37.901 A 6.99 6.99 0 0 0 70.637 36.916 Q 70.473 35.769 69.883 35.309 A 1.55 1.55 0 0 0 68.9 35.001 A 2.785 2.785 0 0 0 66.736 36.012 A 4.453 4.453 0 0 0 66.3 36.601 Q 65.479 37.916 64.995 39.873 A 18.392 18.392 0 0 0 64.8 40.751 A 41.867 41.867 0 0 0 64.255 44.423 A 49.566 49.566 0 0 0 64.1 46.201 Q 63.9 49.101 63.8 51.701 Z M 168.817 22.628 A 3.256 3.256 0 0 0 169.9 22.801 A 3.89 3.89 0 0 0 169.944 22.801 A 3.27 3.27 0 0 0 172.3 21.801 Q 173.3 20.801 173.3 19.401 A 3.82 3.82 0 0 0 173.295 19.199 A 2.871 2.871 0 0 0 172.45 17.251 A 3.38 3.38 0 0 0 172.424 17.225 A 2.79 2.79 0 0 0 170.4 16.401 Q 169 16.401 167.95 17.401 Q 166.9 18.401 166.9 19.801 A 3.82 3.82 0 0 0 166.906 20.004 A 2.871 2.871 0 0 0 167.75 21.951 A 2.806 2.806 0 0 0 168.817 22.628 Z" vector-effect="non-scaling-stroke"/></g></svg>