<svg width="177.101" height="93.5" viewBox="0 0 177.101 93.5" xmlns="http://www.w3.org/2000/svg"><g id="svgGroup" stroke-linecap="round" fill-rule="evenodd" font-size="9pt" stroke="#000" stroke-width="0.25mm" fill="black" style="stroke:#000;stroke-width:0.25mm;fill:black"><path d="M 23.601 75.2 Q 17.401 75.2 12.201 72.35 Q 7.001 69.5 3.951 64.6 A 20.304 20.304 0 0 1 0.928 54.651 A 24.493 24.493 0 0 1 0.901 53.5 A 21.224 21.224 0 0 1 2.571 45.04 A 20.408 20.408 0 0 1 4.601 41.4 A 21.11 21.11 0 0 1 0.221 30.751 A 27.848 27.848 0 0 1 0.001 27.2 A 28.62 28.62 0 0 1 0.9 19.864 A 22.444 22.444 0 0 1 4.401 12.4 Q 8.801 6.3 16.301 3.15 A 40.335 40.335 0 0 1 27.464 0.308 A 50.335 50.335 0 0 1 33.101 0 Q 37.501 0 41.751 0.95 A 79.097 79.097 0 0 1 46.722 2.24 A 100.873 100.873 0 0 1 50.851 3.55 Q 55.019 4.968 60.258 6.792 A 2056.997 2056.997 0 0 1 62.001 7.4 A 7.914 7.914 0 0 1 65.413 5.404 A 9.689 9.689 0 0 1 66.001 5.25 Q 68.148 4.758 69.894 4.706 A 13.686 13.686 0 0 1 70.301 4.7 A 9.105 9.105 0 0 1 71.576 4.784 Q 72.236 4.878 72.784 5.075 A 4.503 4.503 0 0 1 73.401 5.35 Q 74.462 5.925 74.585 7.086 A 2.985 2.985 0 0 1 74.601 7.4 A 2.295 2.295 0 0 1 73.818 9.14 A 3.418 3.418 0 0 1 73.501 9.4 Q 72.401 10.2 70.401 10.2 Q 69.37 10.2 68.08 9.942 A 18.068 18.068 0 0 1 67.651 9.85 Q 66.101 9.5 64.501 9.1 A 7.082 7.082 0 0 0 64.134 10.477 Q 64.026 11.123 64.005 11.857 A 12.448 12.448 0 0 0 64.001 12.2 A 28.253 28.253 0 0 0 64.424 17.178 A 23.537 23.537 0 0 0 65.201 20.3 A 45.607 45.607 0 0 0 67.142 25.242 A 55.088 55.088 0 0 0 68.451 27.9 A 2773.838 2773.838 0 0 0 70.369 31.542 Q 71.354 33.409 72.454 35.489 A 4872.05 4872.05 0 0 0 73.201 36.9 Q 76.201 42.2 78.651 47.2 Q 80.842 51.673 82.274 55.425 A 68.21 68.21 0 0 1 82.601 56.3 A 32.412 32.412 0 0 1 83.424 58.851 Q 84.101 61.319 84.101 63.2 A 19.984 19.984 0 0 1 83.887 66.205 Q 83.637 67.847 83.095 69.217 A 11.151 11.151 0 0 1 82.701 70.1 A 7.377 7.377 0 0 0 84.706 68.263 Q 85.358 67.415 85.891 66.309 A 15.197 15.197 0 0 0 86.351 65.25 Q 87.701 61.8 88.301 54.75 Q 88.901 47.7 88.901 35.5 Q 88.901 29.2 89.351 23.25 Q 89.801 17.3 91.151 12.55 A 21.287 21.287 0 0 1 92.579 8.819 Q 93.704 6.575 95.301 4.95 A 9.294 9.294 0 0 1 100.227 2.351 A 13.55 13.55 0 0 1 102.901 2.1 A 8.855 8.855 0 0 1 105.849 2.572 A 7.586 7.586 0 0 1 109.051 4.75 A 9.1 9.1 0 0 1 111.136 8.997 A 13.096 13.096 0 0 1 111.401 11.7 Q 111.401 13.8 111.001 15.85 Q 110.601 17.9 109.501 19.6 A 7.782 7.782 0 0 1 103.884 23.266 A 11.433 11.433 0 0 1 102.101 23.4 Q 101.352 23.4 101.035 23.201 A 0.452 0.452 0 0 1 100.801 22.8 Q 100.801 22.329 101.954 22.302 A 6.188 6.188 0 0 1 102.101 22.3 A 8.158 8.158 0 0 0 104.658 21.907 A 7.453 7.453 0 0 0 105.751 21.45 A 6.453 6.453 0 0 0 108.306 19.058 A 7.738 7.738 0 0 0 108.401 18.9 Q 109.795 16.461 109.974 12.884 A 21.609 21.609 0 0 0 110.001 11.8 A 10.581 10.581 0 0 0 109.331 7.999 A 9.808 9.808 0 0 0 108.151 5.8 A 5.962 5.962 0 0 0 103.804 3.257 A 8.515 8.515 0 0 0 102.801 3.2 A 7.306 7.306 0 0 0 97.302 5.541 A 9.33 9.33 0 0 0 96.851 6.05 A 16.401 16.401 0 0 0 94.897 9.081 Q 94.133 10.587 93.533 12.404 A 30.892 30.892 0 0 0 93.151 13.65 A 51.939 51.939 0 0 0 91.795 19.939 A 64.076 64.076 0 0 0 91.301 24.05 Q 90.801 29.7 90.801 35.4 Q 90.801 42.827 90.566 48.788 A 217.497 217.497 0 0 1 90.401 52.3 Q 90.104 57.649 89.144 61.618 A 29.596 29.596 0 0 1 88.401 64.2 A 14.52 14.52 0 0 1 86.345 68.2 A 12.304 12.304 0 0 1 83.001 71.3 A 0.189 0.189 0 0 1 82.933 71.339 Q 82.77 71.4 82.301 71.4 A 3.623 3.623 0 0 1 81.781 71.361 A 4.498 4.498 0 0 1 81.451 71.3 Q 81.001 71.2 81.001 71.1 Q 81.299 70.902 81.498 70.063 A 6.093 6.093 0 0 0 81.501 70.05 A 8.141 8.141 0 0 0 81.644 69.286 Q 81.697 68.898 81.701 68.547 A 4.955 4.955 0 0 0 81.701 68.5 Q 81.701 67 81.101 65.4 A 85.697 85.697 0 0 0 78.986 60.698 Q 77.832 58.316 76.421 55.711 A 153.161 153.161 0 0 0 75.451 53.95 Q 71.901 47.6 68.401 41.2 A 173.64 173.64 0 0 1 64.608 33.52 A 144.542 144.542 0 0 1 62.651 29.1 Q 60.93 25.027 60.418 21.744 A 17.175 17.175 0 0 1 60.201 19.1 A 25.966 25.966 0 0 1 62.496 8.51 A 28.089 28.089 0 0 1 62.501 8.5 Q 59.201 10.7 57.401 17.5 Q 55.901 23.2 55.501 29.25 Q 55.101 35.3 54.601 41.45 Q 54.101 47.6 52.301 53.5 A 33.001 33.001 0 0 1 47.806 62.67 A 38.936 38.936 0 0 1 46.301 64.7 A 27.928 27.928 0 0 1 37.209 71.975 A 32.447 32.447 0 0 1 36.451 72.35 Q 30.501 75.2 23.601 75.2 Z M 23.901 73.7 Q 30.201 73.7 35.601 70.25 A 25.119 25.119 0 0 0 40.444 66.148 Q 43.063 63.331 45.401 59.4 A 37.32 37.32 0 0 0 48.682 52.359 A 43.878 43.878 0 0 0 49.501 49.75 A 110.79 110.79 0 0 0 51.874 39.323 A 121.02 121.02 0 0 0 52.001 38.6 Q 53.001 32.8 53.951 27.1 A 103.267 103.267 0 0 1 55.314 20.288 A 85.484 85.484 0 0 1 56.301 16.5 Q 58.001 10.4 61.101 8 A 862.638 862.638 0 0 0 53.811 6.095 Q 50.355 5.208 47.262 4.451 A 518.544 518.544 0 0 0 46.851 4.35 A 55.992 55.992 0 0 0 39.944 3.097 A 44.38 44.38 0 0 0 34.901 2.8 Q 25.701 2.8 18.451 5.65 A 27.527 27.527 0 0 0 11.623 9.468 A 23.457 23.457 0 0 0 7.051 14.15 A 21.057 21.057 0 0 0 3.327 23.055 A 28.707 28.707 0 0 0 2.901 28.1 A 20.505 20.505 0 0 0 4.606 36.485 A 19.872 19.872 0 0 0 6.201 39.4 A 15.87 15.87 0 0 1 17.761 33.922 A 20.33 20.33 0 0 1 18.701 33.9 Q 24.201 33.9 28.301 36.85 A 15.032 15.032 0 0 1 33.721 44.162 A 18.805 18.805 0 0 1 34.001 45 Q 42.901 38.8 42.901 28.8 A 16.5 16.5 0 0 0 42.347 24.457 A 14.142 14.142 0 0 0 41.151 21.45 Q 39.401 18.2 36.351 16.25 A 12.425 12.425 0 0 0 30.648 14.358 A 15.474 15.474 0 0 0 29.301 14.3 Q 24.601 14.3 21.101 17.15 Q 17.601 20 17.601 24.6 A 8.113 8.113 0 0 0 17.967 27.109 Q 18.716 29.421 20.996 30.698 A 7.996 7.996 0 0 0 21.001 30.7 A 2.42 2.42 0 0 1 21.307 30.718 Q 21.628 30.759 21.775 30.896 A 0.396 0.396 0 0 1 21.901 31.2 A 0.203 0.203 0 0 1 21.852 31.325 Q 21.745 31.463 21.401 31.6 A 1.078 1.078 0 0 1 21.172 31.571 Q 20.759 31.479 20.001 31.1 A 7.181 7.181 0 0 1 16.453 25.943 A 10.631 10.631 0 0 1 16.301 24.1 A 12.174 12.174 0 0 1 16.942 20.069 A 10.323 10.323 0 0 1 19.901 15.7 Q 23.501 12.5 28.701 12.5 A 19.507 19.507 0 0 1 33.781 13.128 A 14.391 14.391 0 0 1 40.151 16.7 Q 44.501 20.9 44.501 28 A 23.399 23.399 0 0 1 42.897 36.833 Q 40.477 42.83 34.401 46.8 Q 34.47 47.419 34.515 47.919 A 33.037 33.037 0 0 1 34.551 48.35 A 18.908 18.908 0 0 1 34.585 48.89 Q 34.601 49.219 34.601 49.5 Q 34.601 54.5 31.801 58 A 10.46 10.46 0 0 1 29.083 60.525 A 9.176 9.176 0 0 1 24.101 61.9 Q 22.801 61.9 21.851 61.7 A 3.683 3.683 0 0 1 21.528 61.618 Q 20.991 61.453 20.914 61.191 A 0.319 0.319 0 0 1 20.901 61.1 A 0.864 0.864 0 0 1 20.931 60.863 Q 21.034 60.5 21.501 60.5 A 2.661 2.661 0 0 1 21.619 60.503 Q 21.825 60.513 22.201 60.55 Q 22.701 60.6 23.401 60.6 A 9.27 9.27 0 0 0 27.118 59.873 A 8.873 8.873 0 0 0 30.301 57.5 Q 33.001 54.4 33.001 50.1 A 22.159 22.159 0 0 0 32.994 49.528 Q 32.986 49.217 32.968 48.942 A 11.982 11.982 0 0 0 32.951 48.7 A 9.049 9.049 0 0 0 32.907 48.28 Q 32.881 48.085 32.848 47.917 A 4.132 4.132 0 0 0 32.801 47.7 Q 30.601 48.9 28.051 49.5 A 21.864 21.864 0 0 1 25.158 49.968 A 29.581 29.581 0 0 1 22.301 50.1 A 21.781 21.781 0 0 1 12.319 47.827 A 22.167 22.167 0 0 1 6.301 43.3 Q 3.601 47.8 3.601 53.2 Q 3.601 59.3 6.101 63.95 Q 8.601 68.6 13.201 71.15 A 20.196 20.196 0 0 0 20.191 73.445 A 26.118 26.118 0 0 0 23.901 73.7 Z M 132.101 51.7 A 0.552 0.552 0 0 1 131.741 52.13 Q 131.627 52.175 131.479 52.191 A 1.646 1.646 0 0 1 131.301 52.2 A 0.726 0.726 0 0 1 131.144 52.185 Q 130.823 52.113 130.899 51.712 A 1.041 1.041 0 0 1 130.901 51.7 A 3.883 3.883 0 0 1 130.986 51.326 Q 131.094 50.951 131.255 50.769 A 0.452 0.452 0 0 1 131.601 50.6 Q 132.201 50.6 132.101 51.7 Q 132.801 48.8 133.651 45.65 A 52.184 52.184 0 0 1 134.095 44.1 A 45.492 45.492 0 0 1 135.651 39.75 A 20.21 20.21 0 0 1 135.739 39.543 Q 136.863 36.936 138.451 35.3 A 6.855 6.855 0 0 1 138.686 35.069 A 5.135 5.135 0 0 1 142.301 33.6 A 4.973 4.973 0 0 1 142.445 33.602 Q 144.2 33.653 145.2 34.954 A 5.019 5.019 0 0 1 145.901 36.25 A 14.865 14.865 0 0 1 146.548 38.494 A 17.792 17.792 0 0 1 146.901 42.1 A 22.925 22.925 0 0 1 146.898 42.475 Q 146.854 45.129 146.201 48.35 A 25.078 25.078 0 0 1 145.563 50.85 A 19.779 19.779 0 0 1 144.051 54.45 A 7.911 7.911 0 0 1 143.052 55.896 A 5.138 5.138 0 0 1 140.201 57.6 Q 139.201 57.7 138.251 57.8 Q 137.301 57.9 136.301 58 A 5.941 5.941 0 0 0 135.239 58.174 A 4.249 4.249 0 0 0 134.101 58.65 Q 133.201 59.2 133.201 60.3 Q 133.201 61.41 134.27 61.64 A 3.015 3.015 0 0 0 134.901 61.7 A 5.926 5.926 0 0 0 134.993 61.699 Q 136.33 61.679 137.201 61.05 Q 138.101 60.4 139.151 59.8 Q 139.873 59.388 140.996 59.259 A 9.718 9.718 0 0 1 142.101 59.2 A 7.114 7.114 0 0 1 143.496 59.33 A 4.522 4.522 0 0 1 146.401 61.15 A 8.044 8.044 0 0 1 146.78 61.731 Q 147.367 62.717 147.736 63.954 A 14.233 14.233 0 0 1 148.201 66.2 Q 144.501 68.4 140.501 71.5 Q 136.501 74.6 133.751 78.4 A 16.66 16.66 0 0 0 133.106 79.358 A 13.292 13.292 0 0 0 131.001 86.5 A 9.364 9.364 0 0 0 131.204 88.503 A 6.387 6.387 0 0 0 132.801 91.6 A 5.888 5.888 0 0 0 135.087 93.117 A 6.734 6.734 0 0 0 137.401 93.5 A 10.004 10.004 0 0 0 141.783 92.515 A 11.852 11.852 0 0 0 144.901 90.3 A 20.01 20.01 0 0 0 147.708 86.884 A 24.869 24.869 0 0 0 150.101 82.15 Q 152.001 77.2 152.001 72.1 Q 152.001 69.281 151.623 67.408 A 9.575 9.575 0 0 0 151.201 65.9 Q 154.401 64.3 156.501 60.8 Q 157.813 58.613 158.657 55.605 A 35.095 35.095 0 0 0 159.501 51.7 A 1.292 1.292 0 0 0 159.498 51.617 Q 159.474 51.237 159.217 51.136 A 0.589 0.589 0 0 0 159.001 51.1 A 1.465 1.465 0 0 0 158.941 51.101 Q 158.756 51.109 158.644 51.164 A 0.302 0.302 0 0 0 158.501 51.3 L 158.301 51.7 Q 157.82 54.888 156.958 57.317 A 17.325 17.325 0 0 1 155.651 60.2 Q 153.801 63.4 150.901 64.8 A 27.366 27.366 0 0 0 150.507 64.002 Q 148.894 60.864 147.201 59.75 A 5.089 5.089 0 0 0 146.771 59.498 Q 145.471 58.814 143.385 58.599 A 20.39 20.39 0 0 0 141.301 58.5 A 19.391 19.391 0 0 0 143.782 57.057 A 14.658 14.658 0 0 0 148.451 51.95 Q 150.701 47.8 150.701 42.6 Q 150.701 38.2 148.701 35.3 A 6.354 6.354 0 0 0 145.189 32.735 A 8.719 8.719 0 0 0 142.701 32.4 Q 139.001 32.4 136.701 35.2 Q 134.401 38 133.401 41.8 A 2346.825 2346.825 0 0 0 132.96 43.568 Q 132.284 46.281 131.901 47.85 Q 131.401 49.9 130.901 51.7 Q 130.501 54 129.651 56.7 Q 128.801 59.4 127.701 61.85 A 21.601 21.601 0 0 1 127.479 62.329 Q 126.991 63.348 126.447 64.199 A 12.468 12.468 0 0 1 125.201 65.85 A 5.628 5.628 0 0 1 124.285 66.676 A 3.708 3.708 0 0 1 122.101 67.4 A 1.794 1.794 0 0 1 120.902 66.981 Q 120.343 66.508 120.051 65.5 A 9.12 9.12 0 0 1 119.881 64.806 Q 119.629 63.584 119.544 61.787 A 42.17 42.17 0 0 1 119.501 59.8 Q 119.501 55 120.101 49.9 L 122.201 32.1 A 1.495 1.495 0 0 0 122.159 31.917 Q 122.125 31.803 122.075 31.72 A 0.415 0.415 0 0 0 121.701 31.5 A 0.339 0.339 0 0 0 121.45 31.601 Q 121.351 31.701 121.301 31.9 A 7.091 7.091 0 0 1 121.147 32.168 Q 119.981 34.1 118.201 34.1 A 6.387 6.387 0 0 1 118.02 34.098 Q 117.718 34.089 117.505 34.051 A 1.487 1.487 0 0 1 117.301 34 L 116.401 42.2 A 19.546 19.546 0 0 0 115.932 39.171 Q 115.558 37.642 114.938 36.541 A 5.208 5.208 0 0 0 110.101 33.7 A 7.976 7.976 0 0 0 105.96 34.799 A 9.278 9.278 0 0 0 103.551 36.9 A 18.786 18.786 0 0 0 101.102 40.766 A 25.313 25.313 0 0 0 99.551 44.95 Q 98.201 49.8 98.201 54.8 Q 98.201 58.2 98.951 61.5 A 18.915 18.915 0 0 0 99.007 61.74 Q 99.763 64.877 101.401 66.9 A 5.489 5.489 0 0 0 103.661 68.598 A 6.029 6.029 0 0 0 105.901 69 L 106.601 69 Q 106.788 69 107.015 68.961 A 3.947 3.947 0 0 0 107.301 68.9 Q 111.246 68.111 113.884 61.096 A 43.416 43.416 0 0 0 115.201 56.9 Q 115.201 59.6 115.701 62.35 A 13.272 13.272 0 0 0 116.301 64.584 A 9.696 9.696 0 0 0 117.551 66.95 Q 118.901 68.8 121.301 68.8 A 8.607 8.607 0 0 0 121.927 68.778 A 6.706 6.706 0 0 0 126.801 66.25 A 13.915 13.915 0 0 0 126.984 66.023 Q 128.954 63.526 130.101 59.75 Q 131.301 55.8 132.101 51.7 Q 132.801 48.8 133.651 45.65 M 163.24 68.575 A 8.019 8.019 0 0 0 165.601 68.9 A 7.513 7.513 0 0 0 170.584 67.114 A 10.254 10.254 0 0 0 172.551 64.85 A 16.969 16.969 0 0 0 173.462 63.266 Q 175.536 59.196 177.101 51.7 Q 177.101 51 176.601 51 A 0.933 0.933 0 0 0 176.509 51.004 Q 175.993 51.056 175.901 51.7 A 61.774 61.774 0 0 1 175.305 54.299 A 74.661 74.661 0 0 1 174.001 58.85 A 26.099 26.099 0 0 1 172.722 62.113 A 19.2 19.2 0 0 1 170.901 65.2 A 7.814 7.814 0 0 1 170.345 65.88 A 5.671 5.671 0 0 1 166.001 67.8 Q 164.394 67.8 163.48 66.519 A 4.855 4.855 0 0 1 162.901 65.4 A 11.643 11.643 0 0 1 162.65 64.654 Q 162.001 62.487 162.001 59.6 A 35.971 35.971 0 0 1 162.059 57.592 A 44.68 44.68 0 0 1 162.351 54.45 Q 162.701 51.7 163.201 49.2 A 2492.18 2492.18 0 0 0 163.511 47.794 Q 164.796 41.952 165.601 38.15 A 531.621 531.621 0 0 1 165.905 36.724 Q 166.572 33.616 166.901 32.3 Q 166.976 31.771 166.766 31.642 A 0.31 0.31 0 0 0 166.601 31.6 A 0.53 0.53 0 0 0 166.29 31.695 Q 166.192 31.764 166.113 31.881 A 1.191 1.191 0 0 0 166.001 32.1 Q 165.588 32.925 165.081 33.467 A 3.026 3.026 0 0 1 162.801 34.5 Q 162.388 34.5 161.834 34.358 A 7.824 7.824 0 0 1 161.301 34.2 Q 159.801 42.6 158.601 49.8 Q 158.001 53.4 158.001 56.9 Q 158.001 61.8 159.651 65.35 A 5.693 5.693 0 0 0 163.24 68.575 Z M 106.801 67.7 A 4.296 4.296 0 0 0 108.953 66.728 Q 109.551 66.242 110.095 65.52 A 10.151 10.151 0 0 0 110.651 64.7 Q 112.249 62.084 113.378 58.483 A 38.746 38.746 0 0 0 113.451 58.25 A 52.33 52.33 0 0 0 114.633 53.706 A 42.912 42.912 0 0 0 115.101 51.1 A 29.291 29.291 0 0 0 115.343 48.611 A 37.48 37.48 0 0 0 115.401 46.5 Q 115.401 43.7 114.951 41.05 Q 114.501 38.4 113.501 36.65 A 4.054 4.054 0 0 0 112.778 35.709 A 2.91 2.91 0 0 0 110.701 34.9 Q 109.349 34.9 108.156 36.227 A 7.683 7.683 0 0 0 107.551 37 A 16.017 16.017 0 0 0 106.359 39.058 Q 105.826 40.144 105.364 41.432 A 29.861 29.861 0 0 0 105.051 42.35 Q 104.001 45.6 103.401 49.05 A 45.124 45.124 0 0 0 102.991 51.925 Q 102.801 53.681 102.801 55.2 A 40.943 40.943 0 0 0 102.99 59.054 A 48.631 48.631 0 0 0 103.201 60.9 A 24.5 24.5 0 0 0 103.571 63.009 Q 103.938 64.65 104.501 65.9 Q 105.401 67.9 106.801 67.7 Z M 136.701 91.2 A 7.606 7.606 0 0 0 139.676 90.635 A 7.144 7.144 0 0 0 142.501 88.45 A 18.398 18.398 0 0 0 144.665 84.984 A 25.054 25.054 0 0 0 146.001 81.6 Q 147.301 77.5 148.001 73.3 A 22.528 22.528 0 0 0 148.215 71.288 A 26.121 26.121 0 0 0 148.251 70.55 A 28.87 28.87 0 0 0 148.267 69.556 Q 148.267 68.853 148.236 68.098 A 40.942 40.942 0 0 0 148.201 67.4 A 290.531 290.531 0 0 0 142.426 71.694 A 257.462 257.462 0 0 0 140.601 73.1 A 34.795 34.795 0 0 0 137.143 76.16 A 27.049 27.049 0 0 0 134.701 79 Q 132.401 82.1 132.401 86 A 9.186 9.186 0 0 0 132.585 87.93 Q 133.291 91.2 136.701 91.2 Z M 22.301 48.5 A 20.415 20.415 0 0 0 31.479 46.283 A 24.317 24.317 0 0 0 32.401 45.8 A 14.86 14.86 0 0 0 30.185 40.882 A 13.706 13.706 0 0 0 27.701 38.2 A 12.563 12.563 0 0 0 19.588 35.301 A 15.769 15.769 0 0 0 19.401 35.3 A 14.237 14.237 0 0 0 8.677 40.059 A 20.165 20.165 0 0 0 7.601 41.3 A 23.327 23.327 0 0 0 12.621 45.688 A 17.707 17.707 0 0 0 22.301 48.5 Z M 164.017 25.726 A 3.256 3.256 0 0 0 165.101 25.9 A 3.89 3.89 0 0 0 165.144 25.9 A 3.27 3.27 0 0 0 167.501 24.9 Q 168.501 23.9 168.501 22.5 A 3.82 3.82 0 0 0 168.495 22.297 A 2.871 2.871 0 0 0 167.651 20.35 A 3.38 3.38 0 0 0 167.624 20.324 A 2.79 2.79 0 0 0 165.601 19.5 Q 164.201 19.5 163.151 20.5 Q 162.101 21.5 162.101 22.9 A 3.82 3.82 0 0 0 162.106 23.103 A 2.871 2.871 0 0 0 162.951 25.05 A 2.806 2.806 0 0 0 164.017 25.726 Z M 70.201 9.2 A 6.245 6.245 0 0 0 71.191 9.126 Q 71.866 9.017 72.401 8.75 A 2.186 2.186 0 0 0 72.826 8.478 A 1.226 1.226 0 0 0 73.301 7.5 Q 73.301 6.648 72.611 6.195 A 2.154 2.154 0 0 0 72.351 6.05 Q 71.401 5.6 70.201 5.6 A 7.702 7.702 0 0 0 68.199 5.844 A 5.134 5.134 0 0 0 65.101 8.1 L 68.301 8.9 Q 69.501 9.2 70.201 9.2 Z" vector-effect="non-scaling-stroke"/></g></svg>